<svg xmlns="http://www.w3.org/2000/svg" width="64" height="64" viewBox="0 0 64 64" fill="none">
  <rect x="6" y="6" width="52" height="52" rx="16" fill="#fff4d8"/>
  <path d="M19 19.5C19 18.12 20.12 17 21.5 17H30.5C33.55 17 36.05 18.13 38 20.38C39.95 18.13 42.45 17 45.5 17H46.5C47.88 17 49 18.12 49 19.5V44.5C49 45.88 47.88 47 46.5 47H45.5C42.48 47 40.02 47.86 38.13 49.57C38.06 49.64 37.95 49.64 37.88 49.57C35.98 47.86 33.52 47 30.5 47H21.5C20.12 47 19 45.88 19 44.5V19.5Z" fill="#f49c31"/>
  <path d="M38 20.38V49.18" stroke="#7a3f00" stroke-width="2.5" stroke-linecap="round"/>
  <path d="M23 24H31" stroke="#7a3f00" stroke-width="2.5" stroke-linecap="round"/>
  <path d="M23 29H31" stroke="#7a3f00" stroke-width="2.5" stroke-linecap="round"/>
  <path d="M41 24H45" stroke="#7a3f00" stroke-width="2.5" stroke-linecap="round"/>
  <path d="M41 29H45" stroke="#7a3f00" stroke-width="2.5" stroke-linecap="round"/>
  <path d="M50.69 14.21L51.68 17.06L54.54 18.05L51.68 19.04L50.69 21.89L49.7 19.04L46.84 18.05L49.7 17.06L50.69 14.21Z" fill="#6a5cff"/>
</svg>
